<?xml version="1.0" encoding="UTF-8" standalone="no"?>
<!-- Created with Inkscape (http://www.inkscape.org/) -->

<svg
   xmlns:dc="http://purl.org/dc/elements/1.1/"
   xmlns:cc="http://creativecommons.org/ns#"
   xmlns:rdf="http://www.w3.org/1999/02/22-rdf-syntax-ns#"
   xmlns:svg="http://www.w3.org/2000/svg"
   xmlns="http://www.w3.org/2000/svg"
   xmlns:sodipodi="http://sodipodi.sourceforge.net/DTD/sodipodi-0.dtd"
   xmlns:inkscape="http://www.inkscape.org/namespaces/inkscape"
   id="svg2"
   version="1.1"
   inkscape:version="0.48.4 r9939"
   width="470.42375"
   height="592.92375"
   xml:space="preserve"
   sodipodi:docname="boussole.ai"><metadata
     id="metadata8"><rdf:RDF><cc:Work
         rdf:about=""><dc:format>image/svg+xml</dc:format><dc:type
           rdf:resource="http://purl.org/dc/dcmitype/StillImage" /><dc:title></dc:title></cc:Work></rdf:RDF></metadata><defs
     id="defs6"><clipPath
       clipPathUnits="userSpaceOnUse"
       id="clipPath16"><path
         d="m 0,474.339 376.339,0 L 376.339,0 0,0 0,474.339 z"
         id="path18" /></clipPath></defs><sodipodi:namedview
     pagecolor="#ffffff"
     bordercolor="#666666"
     borderopacity="1"
     objecttolerance="10"
     gridtolerance="10"
     guidetolerance="10"
     inkscape:pageopacity="0"
     inkscape:pageshadow="2"
     inkscape:window-width="996"
     inkscape:window-height="782"
     id="namedview4"
     showgrid="false"
     inkscape:zoom="0.39802756"
     inkscape:cx="235.21187"
     inkscape:cy="296.46188"
     inkscape:window-x="65"
     inkscape:window-y="24"
     inkscape:window-maximized="0"
     inkscape:current-layer="g10" /><g
     id="g10"
     inkscape:groupmode="layer"
     inkscape:label="boussole"
     transform="matrix(1.25,0,0,-1.25,0,592.92375)"><g
       id="g12"><g
         id="g14"
         clip-path="url(#clipPath16)"><g
           id="g20"
           transform="translate(217.9572,466.1193)"><path
             d="m 0,0 0,-78.693 c -1.964,-0.347 -5.893,-0.578 -7.395,-0.578 -1.503,0 -4.97,0.116 -7.396,0.462 l -24.613,48.418 c -2.774,5.778 -5.2,11.209 -7.28,16.062 l -0.463,-0.115 c 0.463,-7.974 1.04,-19.645 1.04,-28.311 l 0,-36.054 c -2.08,-0.346 -4.044,-0.462 -5.662,-0.462 -1.618,0 -3.813,0.116 -5.778,0.462 l 0,78.809 c 1.965,0.347 5.778,0.578 7.28,0.578 1.618,0 4.969,-0.116 7.396,-0.462 l 24.382,-48.418 c 2.889,-6.009 5.431,-12.018 7.627,-16.756 l 0.462,0.116 c -0.578,9.244 -0.924,21.147 -0.924,29.12 l 0,28.773 c 0,5.431 1.617,7.627 6.586,7.627 l 4.045,0 L 0,0 z"
             style="fill:#5d514c;fill-opacity:1;fill-rule:nonzero;stroke:none"
             id="path22" /></g><g
           id="g24"
           transform="translate(203.8247,134.8428)"><path
             d="M 0,0 -14.641,-40.513 -29.282,0 l -17.313,47.909 31.954,0 31.954,0 L 0,0 z m 23.109,51.312 0,0.001 -0.001,0 -18.874,52.227 -18.875,52.23 -18.875,-52.23 -18.874,-52.227 -10e-4,0 10e-4,-0.001 -10e-4,-0.002 10e-4,0 18.874,-52.227 18.875,-52.23 18.875,52.23 18.874,52.227 0.001,0 0,0.002 z"
             style="fill:#c80c0f;fill-opacity:1;fill-rule:nonzero;stroke:none"
             id="path26" /></g><g
           id="g28"
           transform="translate(196.6838,305.6693)"><path
             d="m 0,0 -15,0 4,58 7,0 4,-58 z"
             style="fill:#5d514c;fill-opacity:1;fill-rule:nonzero;stroke:none"
             id="path30" /></g><g
           id="g32"
           transform="translate(309.1838,178.6543)"><path
             d="M 0,0 0,15 58,11 58,4 0,0 z"
             style="fill:#5d514c;fill-opacity:1;fill-rule:nonzero;stroke:none"
             id="path34" /></g><g
           id="g36"
           transform="translate(67.1849,193.6543)"><path
             d="m 0,0 0,-15 -58,4 0,7 58,4 z"
             style="fill:#5d514c;fill-opacity:1;fill-rule:nonzero;stroke:none"
             id="path38" /></g><g
           id="g40"
           transform="translate(181.6838,66.6692)"><path
             d="M 0,0 15,0 11,-58 4,-58 0,0 z"
             style="fill:#5d514c;fill-opacity:1;fill-rule:nonzero;stroke:none"
             id="path42" /></g><g
           id="g44"
           transform="translate(189.1836,337.7097)"><path
             d="m 0,0 c -83.568,0 -151.555,-67.987 -151.555,-151.556 0,-83.568 67.987,-151.555 151.555,-151.555 83.568,0 151.556,67.987 151.556,151.555 C 151.556,-67.987 83.568,0 0,0 m 0,-311.111 c -87.979,0 -159.555,71.576 -159.555,159.555 C -159.555,-63.576 -87.979,8 0,8 87.979,8 159.556,-63.576 159.556,-151.556 159.556,-239.535 87.979,-311.111 0,-311.111"
             style="fill:#5d514c;fill-opacity:1;fill-rule:nonzero;stroke:none"
             id="path46" /></g></g></g></g></svg>