<?xml version="1.0" encoding="UTF-8" standalone="no"?>
<!-- Created with Inkscape (http://www.inkscape.org/) -->

<svg
   width="72.919884mm"
   height="22.149282mm"
   viewBox="0 0 72.919884 22.149282"
   version="1.1"
   id="svg855"
   inkscape:version="1.1 (c68e22c387, 2021-05-23)"
   sodipodi:docname="georchestra-logo-white.svg"
   xmlns:inkscape="http://www.inkscape.org/namespaces/inkscape"
   xmlns:sodipodi="http://sodipodi.sourceforge.net/DTD/sodipodi-0.dtd"
   xmlns="http://www.w3.org/2000/svg"
   xmlns:svg="http://www.w3.org/2000/svg">
  <sodipodi:namedview
     id="namedview857"
     pagecolor="#ffffff"
     bordercolor="#666666"
     borderopacity="1.0"
     inkscape:pageshadow="2"
     inkscape:pageopacity="0.0"
     inkscape:pagecheckerboard="0"
     inkscape:document-units="mm"
     showgrid="false"
     fit-margin-top="0"
     fit-margin-left="0"
     fit-margin-right="0"
     fit-margin-bottom="0"
     inkscape:zoom="0.72337262"
     inkscape:cx="200.44994"
     inkscape:cy="-43.546022"
     inkscape:window-width="2400"
     inkscape:window-height="1271"
     inkscape:window-x="2391"
     inkscape:window-y="-9"
     inkscape:window-maximized="1"
     inkscape:current-layer="layer1" />
  <defs
     id="defs852" />
  <g
     inkscape:label="Calque 1"
     inkscape:groupmode="layer"
     id="layer1"
     transform="translate(-52.054836,-159.73694)">
    <path
       id="path164290-3-6"
       style="fill:#ffffff;fill-opacity:0.284345;stroke-width:0.669754;stroke-linecap:round;stroke-linejoin:round;paint-order:markers stroke fill"
       d="m 63.129334,159.73694 a 11.074759,11.074759 0 0 0 -11.074498,11.07479 11.074759,11.074759 0 0 0 11.074498,11.07449 11.074759,11.074759 0 0 0 10.631194,-7.99156 3.3498344,3.9081402 0 0 1 -2.226031,-3.67996 3.3498344,3.9081402 0 0 1 1.879629,-3.50893 11.074759,11.074759 0 0 0 -10.284792,-6.96883 z"
       inkscape:export-filename="C:\Users\Agathe\Desktop\georchestra_univers.png"
       inkscape:export-xdpi="200"
       inkscape:export-ydpi="200" />
    <path
       id="path20251-5-9-8"
       style="fill:#ffffff;fill-opacity:1;stroke-width:0.37285;stroke-linecap:round;stroke-linejoin:round;paint-order:markers stroke fill"
       d="m 75.888488,164.67988 a 5.5118612,5.5118612 0 0 0 -5.512009,5.51202 5.5118612,5.5118612 0 0 0 5.512009,5.51172 5.5118612,5.5118612 0 0 0 5.511721,-5.51172 5.5118612,5.5118612 0 0 0 -5.511721,-5.51202 z m 0,2.96527 a 2.5466196,2.5466196 0 0 1 2.546477,2.54675 2.5466196,2.5466196 0 0 1 -2.546477,2.54647 2.5466196,2.5466196 0 0 1 -2.546752,-2.54647 2.5466196,2.5466196 0 0 1 2.546752,-2.54675 z"
       inkscape:export-filename="C:\Users\Agathe\Desktop\georchestra_univers.png"
       inkscape:export-xdpi="200"
       inkscape:export-ydpi="200" />
    <g
       aria-label="ge     rchestra"
       id="text10089-26-6"
       style="font-size:10.6397px;line-height:1.25;font-family:Roboto;-inkscape-font-specification:'Roboto, Normal';letter-spacing:0px;fill:#ffffff;stroke-width:0.664982">
      <path
         d="m 59.655488,175.5645 q -0.736769,0 -1.265731,-0.19647 -0.528963,-0.19647 -0.850118,-0.52518 -0.321156,-0.32872 -0.44584,-0.72166 l 1.231727,-0.29849 q 0.08312,0.15491 0.241811,0.31738 0.158689,0.16625 0.426948,0.27582 0.272038,0.11335 0.683873,0.11335 0.581859,0 0.963467,-0.2796 0.381609,-0.27959 0.381609,-0.90301 v -1.09949 h -0.06801 q -0.105792,0.21159 -0.309821,0.43451 -0.20025,0.22292 -0.53274,0.37405 -0.328713,0.15113 -0.827449,0.15113 -0.668759,0 -1.212835,-0.3136 -0.540297,-0.31738 -0.861453,-0.94457 -0.317377,-0.63098 -0.317377,-1.57934 0,-0.95591 0.317377,-1.61333 0.321156,-0.6612 0.865232,-1.00125 0.544075,-0.34383 1.212835,-0.34383 0.510071,0 0.838783,0.17381 0.332491,0.17002 0.528962,0.41183 0.196472,0.23803 0.298486,0.44962 h 0.07557 v -0.95969 h 1.348854 v 5.89793 q 0,0.72921 -0.35516,1.21284 -0.355161,0.4874 -0.971024,0.72543 -0.615863,0.24181 -1.397972,0.24181 z m 0.01134,-3.4307 q 0.434505,0 0.740547,-0.21158 0.306043,-0.21159 0.464732,-0.60831 0.158688,-0.39672 0.158688,-0.95213 0,-0.54786 -0.158688,-0.95969 -0.154911,-0.41184 -0.460953,-0.63853 -0.302265,-0.23048 -0.744326,-0.23048 -0.457175,0 -0.763217,0.23803 -0.306043,0.23804 -0.460953,0.65365 -0.15491,0.41183 -0.15491,0.93702 0,0.53274 0.15491,0.93324 0.158689,0.39672 0.464731,0.61964 0.309821,0.21914 0.759439,0.21914 z"
         id="path2468" />
      <path
         d="m 66.354415,173.40331 q -0.872788,0 -1.507543,-0.36272 -0.630977,-0.36649 -0.971024,-1.03525 -0.340047,-0.67254 -0.340047,-1.58311 0,-0.89546 0.340047,-1.57177 0.343826,-0.6801 0.959689,-1.05793 0.615863,-0.38161 1.44709,-0.38161 0.536519,0 1.012585,0.17381 0.479844,0.17002 0.84634,0.52896 0.370273,0.35894 0.581858,0.91435 0.211585,0.55163 0.211585,1.31485 v 0.41939 h -4.756883 v -0.92191 h 3.445812 q -0.0038,-0.39294 -0.170023,-0.69898 -0.166246,-0.30982 -0.464732,-0.4874 -0.294707,-0.17758 -0.687651,-0.17758 -0.419391,0 -0.736769,0.20402 -0.317377,0.20025 -0.494957,0.52897 -0.173802,0.32493 -0.17758,0.7141 v 0.80477 q 0,0.5063 0.185136,0.86901 0.185137,0.35894 0.517628,0.55164 0.33249,0.18891 0.77833,0.18891 0.298486,0 0.540297,-0.0831 0.241812,-0.0869 0.419392,-0.25315 0.17758,-0.16624 0.268259,-0.41183 l 1.277067,0.14357 q -0.120906,0.50629 -0.460953,0.88412 -0.336269,0.37406 -0.861453,0.58186 -0.525184,0.20403 -1.2015,0.20403 z"
         id="path2470" />
      <path
         d="m 83.296304,173.28996 v -5.80347 h 1.326185 v 0.96725 h 0.06045 q 0.158689,-0.50252 0.544076,-0.77456 0.389165,-0.27581 0.887901,-0.27581 0.113349,0 0.253146,0.0113 0.143576,0.008 0.238033,0.0264 v 1.25818 q -0.0869,-0.0302 -0.275816,-0.0529 -0.185136,-0.0265 -0.358938,-0.0265 -0.374052,0 -0.672538,0.16247 -0.294708,0.15869 -0.464731,0.44206 -0.170024,0.28337 -0.170024,0.65365 v 3.4118 z"
         style="font-weight:600;font-family:inter;-inkscape-font-specification:'inter Semi-Bold'"
         id="path2472" />
      <path
         d="m 89.806311,173.40331 q -0.869009,0 -1.492429,-0.38161 -0.619642,-0.38161 -0.955911,-1.05414 -0.33249,-0.67632 -0.33249,-1.55666 0,-0.88413 0.340047,-1.56044 0.340047,-0.6801 0.959689,-1.05793 0.62342,-0.38161 1.473538,-0.38161 0.706542,0 1.250618,0.26071 0.547854,0.25692 0.872788,0.72921 0.324934,0.46851 0.370273,1.09571 h -1.307292 q -0.07934,-0.41939 -0.37783,-0.69899 -0.294708,-0.28337 -0.789666,-0.28337 -0.419391,0 -0.736769,0.2267 -0.317377,0.22292 -0.494957,0.64231 -0.173802,0.41939 -0.173802,1.00503 0,0.59319 0.173802,1.02014 0.173802,0.42317 0.487401,0.65364 0.317377,0.2267 0.744325,0.2267 0.302265,0 0.540298,-0.11335 0.241811,-0.11712 0.404278,-0.33627 0.162467,-0.21914 0.22292,-0.53274 h 1.307292 q -0.04912,0.61587 -0.362717,1.09193 -0.313599,0.47229 -0.853896,0.74055 -0.540297,0.26448 -1.26951,0.26448 z"
         style="font-weight:600;font-family:inter;-inkscape-font-specification:'inter Semi-Bold'"
         id="path2474" />
      <path
         d="m 94.786101,169.88949 v 3.40047 H 93.418356 V 165.552 h 1.337519 v 2.92063 h 0.06801 q 0.204029,-0.49118 0.630977,-0.77455 0.430726,-0.28716 1.095708,-0.28716 0.604528,0 1.054146,0.25315 0.449618,0.25315 0.695208,0.74055 0.249368,0.4874 0.249368,1.19016 v 3.69518 h -1.367746 v -3.48359 q 0,-0.58564 -0.302264,-0.91057 -0.298486,-0.32872 -0.838783,-0.32872 -0.362717,0 -0.649868,0.15869 -0.283373,0.15491 -0.44584,0.44962 -0.158689,0.29471 -0.158689,0.7141 z"
         style="font-weight:600;font-family:inter;-inkscape-font-specification:'inter Semi-Bold'"
         id="path2476" />
      <path
         d="m 102.50893,173.40331 q -0.87278,0 -1.50754,-0.36272 -0.63098,-0.36649 -0.97102,-1.03525 -0.34005,-0.67254 -0.34005,-1.58311 0,-0.89546 0.34005,-1.57177 0.34382,-0.6801 0.95969,-1.05793 0.61586,-0.38161 1.44709,-0.38161 0.53651,0 1.01258,0.17381 0.47984,0.17002 0.84634,0.52896 0.37027,0.35894 0.58186,0.91435 0.21158,0.55163 0.21158,1.31485 v 0.41939 h -4.75688 v -0.92191 h 3.44581 q -0.004,-0.39294 -0.17002,-0.69898 -0.16625,-0.30982 -0.46473,-0.4874 -0.29471,-0.17758 -0.68765,-0.17758 -0.41939,0 -0.73677,0.20402 -0.31738,0.20025 -0.49496,0.52897 -0.1738,0.32493 -0.17758,0.7141 v 0.80477 q 0,0.5063 0.18514,0.86901 0.18513,0.35894 0.51762,0.55164 0.3325,0.18891 0.77833,0.18891 0.29849,0 0.5403,-0.0831 0.24181,-0.0869 0.41939,-0.25315 0.17758,-0.16624 0.26826,-0.41183 l 1.27707,0.14357 q -0.12091,0.50629 -0.46095,0.88412 -0.33627,0.37406 -0.86146,0.58186 -0.52518,0.20403 -1.2015,0.20403 z"
         style="font-weight:600;font-family:inter;-inkscape-font-specification:'inter Semi-Bold'"
         id="path2478" />
      <path
         d="m 110.83253,169.02048 -1.24684,0.13602 q -0.0529,-0.18892 -0.18514,-0.35516 -0.12846,-0.16625 -0.3476,-0.26826 -0.21914,-0.10201 -0.53652,-0.10201 -0.42695,0 -0.71788,0.18513 -0.28715,0.18514 -0.28337,0.47985 -0.004,0.25314 0.18513,0.41183 0.1927,0.15869 0.63476,0.2607 l 0.98991,0.21159 q 0.82367,0.17758 1.22417,0.56297 0.40428,0.38538 0.40806,1.0088 -0.004,0.54786 -0.32115,0.96725 -0.3136,0.41561 -0.87279,0.64987 -0.55919,0.23425 -1.28463,0.23425 -1.06548,0 -1.71534,-0.44584 -0.64987,-0.44962 -0.77456,-1.25062 l 1.33374,-0.12846 q 0.0907,0.39295 0.38539,0.5932 0.29471,0.20025 0.767,0.20025 0.4874,0 0.78211,-0.20025 0.29848,-0.20025 0.29848,-0.49496 0,-0.24937 -0.19269,-0.41184 -0.18892,-0.16246 -0.58942,-0.24937 l -0.98991,-0.2078 q -0.83501,-0.1738 -1.23551,-0.58564 -0.4005,-0.41561 -0.39672,-1.05037 -0.004,-0.53652 0.29093,-0.92946 0.29849,-0.39672 0.82745,-0.61208 0.53274,-0.21915 1.22795,-0.21915 1.02014,0 1.60578,0.43451 0.58941,0.4345 0.72921,1.17505 z"
         style="font-weight:600;font-family:inter;-inkscape-font-specification:'inter Semi-Bold'"
         id="path2480" />
      <path
         d="m 114.98488,167.48649 v 1.05792 h -3.33624 v -1.05792 z m -2.51257,-1.39042 h 1.36774 v 5.44832 q 0,0.27581 0.0831,0.42317 0.0869,0.14357 0.2267,0.19647 0.1398,0.0529 0.30982,0.0529 0.12847,0 0.23426,-0.0189 0.10957,-0.0189 0.16624,-0.034 l 0.23048,1.06926 q -0.10957,0.0378 -0.3136,0.0831 -0.20025,0.0453 -0.49118,0.0529 -0.51385,0.0151 -0.92568,-0.15491 -0.41184,-0.17381 -0.65365,-0.53652 -0.23803,-0.36272 -0.23425,-0.90679 z"
         style="font-weight:600;font-family:inter;-inkscape-font-specification:'inter Semi-Bold'"
         id="path2482" />
      <path
         d="m 116.12969,173.28996 v -5.80347 h 1.32619 v 0.96725 h 0.0605 q 0.15869,-0.50252 0.54408,-0.77456 0.38916,-0.27581 0.8879,-0.27581 0.11335,0 0.25314,0.0113 0.14358,0.008 0.23804,0.0264 v 1.25818 q -0.0869,-0.0302 -0.27582,-0.0529 -0.18514,-0.0265 -0.35894,-0.0265 -0.37405,0 -0.67254,0.16247 -0.2947,0.15869 -0.46473,0.44206 -0.17002,0.28337 -0.17002,0.65365 v 3.4118 z"
         style="font-weight:600;font-family:inter;-inkscape-font-specification:'inter Semi-Bold'"
         id="path2484" />
      <path
         d="m 121.91048,173.40709 q -0.55163,0 -0.9937,-0.19647 -0.43828,-0.20025 -0.6952,-0.58942 -0.25315,-0.38916 -0.25315,-0.95969 0,-0.49117 0.18136,-0.81233 0.18136,-0.32116 0.49496,-0.51385 0.3136,-0.19269 0.70654,-0.29093 0.39672,-0.10201 0.81989,-0.14735 0.51007,-0.0529 0.82745,-0.0945 0.31738,-0.0453 0.46095,-0.13602 0.14736,-0.0945 0.14736,-0.29093 v -0.0227 q 0,-0.42695 -0.25315,-0.6612 -0.25315,-0.23426 -0.72921,-0.23426 -0.50252,0 -0.79722,0.21915 -0.29093,0.21914 -0.39295,0.51762 l -1.27706,-0.18136 q 0.15113,-0.52896 0.49873,-0.88412 0.34761,-0.35894 0.85012,-0.53652 0.50251,-0.18136 1.11082,-0.18136 0.41939,0 0.83501,0.0982 0.41561,0.0982 0.75943,0.32493 0.34383,0.22292 0.55164,0.60831 0.21158,0.38539 0.21158,0.96347 v 3.88409 h -1.31485 v -0.79722 h -0.0453 q -0.12468,0.24181 -0.35138,0.4534 -0.22292,0.2078 -0.56297,0.33627 -0.33627,0.12468 -0.78966,0.12468 z m 0.35516,-1.00503 q 0.41183,0 0.7141,-0.16247 0.30226,-0.16624 0.46473,-0.43828 0.16624,-0.27204 0.16624,-0.59319 v -0.68387 q -0.0642,0.0529 -0.21914,0.0982 -0.15113,0.0453 -0.34004,0.0794 -0.18892,0.034 -0.37406,0.0605 -0.18513,0.0264 -0.32115,0.0453 -0.30604,0.0416 -0.54786,0.13602 -0.24181,0.0945 -0.3816,0.26448 -0.1398,0.16624 -0.1398,0.43072 0,0.37783 0.27581,0.57053 0.27582,0.19269 0.70277,0.19269 z"
         style="font-weight:600;font-family:inter;-inkscape-font-specification:'inter Semi-Bold'"
         id="path2486" />
    </g>
  </g>
</svg>
